PathFileType	4	(X/Y/Z)	C:\Users\Basilio\Documents\Thesis Gigler\squatting_fais\c3dfiles\075\SLS_front_pre3\markers_experimental.trc
DataRate	CameraRate	NumFrames	NumMarkers	Units	OrigDataRate	OrigDataStartFrame	OrigNumFrames
200.000000	200.000000	4	61	mm	200.000000	332	1331
Frame#	Time	FHD			LBHD			C7			T10			CLAV			LSHO			LUUPA			LMUPA			LDUPA			LLEP			LMEP			LRAD			LUL			LRFIN			RSHO			RUPA1			RMUPA			RDUPA			RLEP			RMEP			RRAD			RUL			RUFIN			RASI			USACR			LSACR			RSACR			LTHI1			LTHI2			LTHI3			LTHI4			LLFC			LMFC			LTIB1			LTIB2			LTIB3			LTIB4			LLMAL			LMMAL			LHEE			LMT1			LMT2			LMT5			RTHI			RTHI2			RTHI3			RTHI4			RLFC			RMFC			RTIB1			RTIB2			RTIB3			RTIB4			RLMAL			RMMAL			RHEE			RMT1			RMT2			RMT5			LASI			RBHD			
		X1	Y1	Z1	X2	Y2	Z2	X3	Y3	Z3	X4	Y4	Z4	X5	Y5	Z5	X6	Y6	Z6	X7	Y7	Z7	X8	Y8	Z8	X9	Y9	Z9	X10	Y10	Z10	X11	Y11	Z11	X12	Y12	Z12	X13	Y13	Z13	X14	Y14	Z14	X15	Y15	Z15	X16	Y16	Z16	X17	Y17	Z17	X18	Y18	Z18	X19	Y19	Z19	X20	Y20	Z20	X21	Y21	Z21	X22	Y22	Z22	X23	Y23	Z23	X24	Y24	Z24	X25	Y25	Z25	X26	Y26	Z26	X27	Y27	Z27	X28	Y28	Z28	X29	Y29	Z29	X30	Y30	Z30	X31	Y31	Z31	X32	Y32	Z32	X33	Y33	Z33	X34	Y34	Z34	X35	Y35	Z35	X36	Y36	Z36	X37	Y37	Z37	X38	Y38	Z38	X39	Y39	Z39	X40	Y40	Z40	X41	Y41	Z41	X42	Y42	Z42	X43	Y43	Z43	X44	Y44	Z44	X45	Y45	Z45	X46	Y46	Z46	X47	Y47	Z47	X48	Y48	Z48	X49	Y49	Z49	X50	Y50	Z50	X51	Y51	Z51	X52	Y52	Z52	X53	Y53	Z53	X54	Y54	Z54	X55	Y55	Z55	X56	Y56	Z56	X57	Y57	Z57	X58	Y58	Z58	X59	Y59	Z59	X60	Y60	Z60	X61	Y61	Z61	

333	1.66	-295.2321777343751	1713.405395507813	-815.0390625000002	-434.7789916992189	1587.27685546875	-882.856628417969	-466.2285766601564	1467.307861328125	-819.4174804687502	-465.4720458984376	1145.37841796875	-808.5278930664065	-318.0798645019532	1419.494873046875	-806.4895019531252	-345.9357299804688	1448.260375976563	-952.1622314453127	-194.807846069336	1349.728881835938	-1036.524047851563	-165.594482421875	1374.942260742188	-1005.492065429688	-127.1967849731446	1339.347412109375	-1034.600341796875	-45.32511138916016	1325.992919921875	-1021.632080078125	-68.26707458496095	1259.044067382813	-973.5064697265627	nan	nan	nan	184.3304290771485	1345.11328125	-902.6701660156252	183.8284149169922	1375.1787109375	-796.0840454101565	-364.6886596679688	1456.922119140625	-667.9319458007814	-221.8807067871094	1369.677368164063	-557.5395507812501	-186.1153411865235	1388.377075195313	-585.9403076171876	-153.5535125732422	1355.489624023438	-546.3386230468751	-82.4826126098633	1346.130126953125	-549.0760498046876	-81.87507629394533	1272.365112304688	-577.2838745117189	120.8057861328125	1364.542846679688	-741.6682739257814	146.7336578369141	1370.916137695313	-668.5205688476564	197.0823516845704	1397.385131835938	-770.5278930664065	-293.2872009277344	986.5037841796877	-681.8665771484376	-454.1224060058595	1043.47509765625	-813.3509521484377	-456.8486633300782	1011.637817382813	-841.0935058593752	-457.7121887207032	1011.900939941406	-783.6040649414065	-253.2420501708985	768.4249267578127	-1019.661071777344	-194.8349914550782	707.7187500000001	-1022.643371582031	-156.6610412597657	724.8027954101564	-996.6707763671877	-200.5008850097657	647.8779296875001	-1026.779541015625	-178.7186126708985	546.3999633789064	-1030.906982421875	-151.1471405029297	518.5059814453126	-906.3613891601565	-139.5547943115235	417.326629638672	-1010.932189941406	-205.7089843750001	396.1226196289064	-1063.920043945313	-166.092041015625	380.3414001464844	-1047.855834960938	-186.881576538086	299.2910156250001	-1029.478759765625	-290.7657775878907	184.575912475586	-1064.988647460938	-259.6381225585938	176.7115783691407	-984.9582519531252	-352.5356750488282	168.6346588134766	-1024.992919921875	-173.3357849121094	62.00132369995119	-1009.443481445313	-165.1971130371094	71.34316253662111	-1057.072143554688	-208.1102600097657	74.64208984375001	-1107.606811523438	-339.5738525390626	774.3682250976565	-630.3845825195314	-296.8983459472657	725.2720947265626	-635.6140136718751	-265.6015014648438	734.5911254882814	-643.4002685546876	-316.5766296386719	643.0624389648439	-651.2340087890626	-318.4770202636719	490.853973388672	-691.2667846679689	-279.4871215820313	495.0889892578126	-813.8754882812502	-277.6823425292969	347.7966308593751	-771.4924316406252	-335.2404479980469	269.8236999511719	-723.5962524414064	-297.3822021484376	264.4609375000001	-754.7680053710939	-313.7604064941407	226.0254058837891	-796.1516113281252	-395.3167724609376	111.9784927368164	-773.4155883789065	-361.0169982910157	138.1502380371094	-851.7424316406252	-446.2479248046876	93.79833984375001	-836.2696533203127	-242.5996551513672	55.21861267089845	-824.102722167969	-246.1769714355469	56.50510787963869	-780.7398071289065	-289.8433837890626	35.06197738647462	-734.4777221679689	-292.0415344238282	990.193298339844	-936.7702636718752	nan	nan	nan	
334	1.665	-295.3144226074219	1713.373901367188	-814.5906372070315	-434.9797973632814	1587.3974609375	-882.5086059570315	-466.4421997070314	1467.36376953125	-818.9700927734377	-465.8377685546876	1145.364013671875	-808.143737792969	-318.2262268066407	1419.508666992188	-806.113464355469	-346.2555541992188	1448.363159179688	-951.733093261719	-195.1128845214844	1350.01611328125	-1036.067504882813	-165.9038848876953	1375.199462890625	-1004.907470703125	-127.2014236450196	1339.785888671875	-1034.564575195313	-45.84372711181641	1326.289794921875	-1020.888916015625	-68.23105621337892	1259.256469726563	-972.710632324219	nan	nan	nan	184.1939544677735	1345.53125	-902.351745605469	183.8406677246094	1375.693237304688	-795.8062133789065	-364.8268127441407	1456.97119140625	-667.5413208007814	-221.9688262939454	1369.989501953125	-557.1577758789064	-186.2296447753907	1388.708129882813	-585.6613769531251	-153.6117095947266	1355.818969726563	-546.0639648437501	-82.54096984863283	1346.4658203125	-548.8544311523439	-81.85178375244142	1272.734252929688	-577.0160522460939	120.7156066894532	1365.031860351563	-741.2583007812501	146.7360076904297	1371.725830078125	-668.1985473632814	197.0134429931641	1397.888671875	-770.2944335937502	-293.5592346191407	986.4603271484377	-681.6539916992189	-454.4774475097657	1043.544799804688	-812.9787597656252	-457.3314208984376	1011.739807128906	-840.6881103515627	-458.0397949218751	1012.003601074219	-783.1877441406252	-253.5281829833985	768.9946899414065	-1019.603698730469	-194.2240295410157	708.4627075195314	-1022.211181640625	-155.8532104492188	725.6235961914064	-995.9046630859377	-199.2031860351563	648.6154174804689	-1025.975830078125	-177.1344909667969	547.1423339843751	-1030.160766601563	-149.8741607666016	519.4643554687501	-905.4371337890627	-138.5292053222657	418.2578430175782	-1010.505981445313	-204.107406616211	396.960418701172	-1063.218139648438	-164.5080718994141	381.1042175292969	-1047.384765625	-185.7445831298828	300.2254638671876	-1028.724609375	-291.2827148437501	186.2085723876953	-1064.426391601563	-258.6280822753907	177.614974975586	-984.3508911132815	-351.6085205078126	169.7607574462891	-1024.47021484375	-172.4075012207032	62.84952926635744	-1009.111511230469	-164.3173217773438	72.58052825927736	-1056.636352539063	-206.8347625732422	76.51844024658205	-1106.762817382813	-339.8781738281251	774.3354492187502	-630.1069335937501	-297.2103576660157	725.2755737304689	-635.3636474609376	-265.9178161621094	734.6365356445314	-643.1224975585939	-316.8193054199219	643.0275878906251	-651.0155029296876	-318.7141113281251	490.8410644531251	-691.0795288085939	-279.7437744140626	495.167449951172	-813.740173339844	-277.8266906738282	347.7726440429688	-771.3169555664065	-335.3607788085938	269.8216552734376	-723.4920043945314	-297.4574584960938	264.4740295410157	-754.6706542968751	-313.8268432617188	225.9384765625001	-796.0523681640627	-395.4083251953126	111.9733963012696	-773.3961181640627	-360.9597778320313	138.1902618408203	-851.6558227539065	-446.2547302246095	93.76596832275392	-836.2644042968752	-242.767074584961	55.2050247192383	-824.0354003906252	-246.1844940185547	56.51868057250978	-780.734313964844	-289.9254760742188	35.12815475463868	-734.4746704101564	-292.0764465332032	990.1678466796877	-936.3001708984377	nan	nan	nan	
335	1.67	-295.4512329101563	1713.287963867188	-814.2719726562502	-435.242889404297	1587.383422851563	-882.1884765625002	-466.7233276367189	1467.457275390625	-818.4152832031252	-466.0978393554689	1145.418212890625	-807.727233886719	-318.4559326171876	1419.565551757813	-805.7544555664065	-346.5556335449219	1448.3974609375	-951.2661132812502	-195.7069854736329	1350.302978515625	-1035.632202148438	-166.8672027587891	1375.668212890625	-1004.565307617188	-127.6156005859375	1339.959838867188	-1033.808227539063	-45.88526916503907	1326.838989257813	-1020.651611328125	-68.35266876220705	1259.6220703125	-972.3114013671877	nan	nan	nan	183.4532775878907	1346.1044921875	-902.1580810546877	182.3619537353516	1375.907348632813	-796.200378417969	-364.9368591308594	1457.100708007813	-667.1577758789064	-221.9402618408204	1370.37255859375	-556.8634033203126	-186.2976226806641	1389.014038085938	-585.3677368164064	-153.6571502685547	1356.20751953125	-545.8190307617189	-82.54893493652345	1346.891479492188	-548.6168823242189	-81.92454528808595	1273.107543945313	-576.7764282226564	120.9335861206055	1365.417236328125	-741.2352294921876	146.6764678955078	1372.271606445313	-667.9686889648439	196.9778442382813	1398.351928710938	-770.0676879882815	-293.8332519531251	986.4595336914065	-681.4136962890626	-454.8504028320314	1043.591796875	-812.5900878906252	-457.7659606933595	1011.858825683594	-840.3018188476565	-458.3908081054689	1012.024169921875	-782.8486938476565	-252.2932128906251	769.3323364257815	-1019.122375488281	-193.6384429931641	709.1898803710939	-1021.749572753906	-155.432861328125	726.5387573242189	-995.4578247070315	-199.4812774658204	649.4936523437501	-1025.871459960938	-175.9588317871094	548.1815185546876	-1029.468017578125	-148.6051330566407	520.3589477539064	-904.7548828125002	-136.7971649169922	419.0401611328126	-1009.550720214844	-202.8984985351563	397.8106079101564	-1062.43310546875	-163.3028564453125	381.9055786132813	-1046.487426757813	-184.1070251464844	300.9234924316407	-1027.549072265625	-289.3353576660157	187.1095428466797	-1063.761962890625	-257.4491882324219	178.601058959961	-983.626159667969	-350.7010192871094	170.9086151123047	-1023.806762695313	-171.3489990234375	63.89469528198244	-1008.773803710938	-163.0576171875	73.83460998535158	-1056.215698242188	-205.7705230712891	78.07798767089845	-1106.329711914063	-340.2734680175782	774.284851074219	-629.8873901367189	-297.5715637207032	725.2690429687501	-635.0957031250001	-266.1516113281251	734.8724975585939	-643.2759399414064	-317.1494750976563	642.9714355468751	-650.7783203125001	-318.9735107421876	490.7901916503907	-690.9132690429689	-279.9509887695313	495.1967163085939	-813.5152587890627	-278.0220336914063	347.7968444824219	-771.143005371094	-335.4948120117188	269.8030700683594	-723.3656616210939	-297.5542907714844	264.4411621093751	-754.5985717773439	-313.8142089843751	226.0491943359376	-795.9100341796877	-395.4927673339845	111.9447326660157	-773.3568115234377	-361.0710449218751	138.1027526855469	-851.573181152344	-446.2703247070314	93.75734710693361	-836.225280761719	-242.6412353515626	55.19417572021486	-824.0679931640627	-246.1720886230469	56.53038787841798	-780.7151489257815	-289.8727722167969	35.05191802978516	-734.4634399414064	-293.3003845214844	990.2161865234377	-936.3782958984377	nan	nan	nan	
336	1.675	-295.5946044921876	1713.372924804688	-813.9522705078127	-435.6004638671876	1587.340454101563	-881.7300415039065	-466.910858154297	1467.536865234375	-817.9673461914065	-466.4099426269532	1145.452514648438	-807.2634277343752	-318.6075134277344	1419.59228515625	-805.3599853515627	-346.9277038574219	1448.444458007813	-950.7903442382815	-195.9614562988282	1350.587890625	-1035.255859375	-166.4974517822266	1375.74267578125	-1003.934631347656	-127.8255081176758	1340.452026367188	-1033.583251953125	-46.21271133422852	1327.041259765625	-1019.940124511719	-68.60056304931642	1260.085693359375	-971.8415527343752	nan	nan	nan	183.36474609375	1346.743286132813	-901.980651855469	183.443359375	1376.72705078125	-795.121276855469	-365.0098876953126	1457.141723632813	-666.7410888671876	-221.9855041503907	1370.628662109375	-556.6224365234376	-186.29931640625	1389.280029296875	-585.0945434570314	-153.6979370117188	1356.6044921875	-545.5242919921876	-82.55335235595705	1347.27783203125	-548.3889770507814	-81.8905487060547	1273.574340820313	-576.6293945312501	118.9280014038086	1365.93310546875	-738.0940551757814	146.8856506347657	1372.74169921875	-667.7778930664064	196.8521575927735	1398.946044921875	-769.9689941406252	-294.1973571777344	986.4238891601565	-681.1923828125001	-455.2472534179689	1043.701416015625	-812.211608886719	-458.2102355957032	1011.922607421875	-839.9216308593752	-458.7665405273439	1012.064086914063	-782.476257324219	-252.2195587158204	769.7712402343752	-1019.001892089844	-193.0353393554688	709.9036865234376	-1021.350769042969	-155.1805114746094	727.4917602539064	-994.9788818359377	-197.6771850585938	650.1375122070314	-1025.154541015625	-174.4472198486328	548.8317871093751	-1028.647338867188	-147.3115234375	521.4509887695314	-903.8557128906252	-135.9474792480469	419.8534545898439	-1009.040588378906	-201.5781860351563	398.7840576171876	-1061.870849609375	-162.0918731689453	382.9202575683594	-1045.781860351563	-182.9067535400391	301.8495483398438	-1026.91162109375	-288.2668457031251	188.2590484619141	-1063.244750976563	-256.7656860351563	179.3842315673828	-983.2342529296877	-349.9807434082032	171.8925018310547	-1023.269775390625	-170.1040496826172	64.89149475097658	-1008.428405761719	-161.8852996826172	75.23508453369142	-1055.820434570313	-204.5337219238282	79.57888031005861	-1105.913330078125	-340.6197814941407	774.2346191406252	-629.6970825195314	-297.9015808105469	725.2634887695314	-634.8741455078126	-266.4911193847657	734.8185424804689	-643.0629882812501	-317.5250854492188	642.9781494140626	-650.5869750976564	-319.3216857910157	490.7720947265626	-690.7502441406251	-280.2705688476563	495.1837158203126	-813.4288330078127	-278.2457885742188	347.8074035644532	-771.0159912109377	-335.6397094726563	269.8340454101563	-723.2994384765626	-297.7054748535157	264.4815979003907	-754.4709472656251	-313.8982238769532	226.0486602783204	-795.799499511719	-395.5485229492189	111.8922729492188	-773.3228149414065	-361.1926574707032	138.126220703125	-851.5837402343752	-446.2759094238282	93.77123260498048	-836.2329101562502	-242.7038116455079	55.16217422485353	-823.8958740234377	-246.1804809570313	56.50925445556642	-780.7056274414065	-289.8693237304688	35.02606201171876	-734.4671020507814	-293.6978149414063	990.3879394531252	-936.1245727539065	nan	nan	nan	
